# xmcd
#
# Track frame offsets:
#	150
#	47195
#	72933
#	95623
#	108431
#	132308
#	160299
#	202804
#	240245
#	269099
#	298956
#
# Disc length: 4075 seconds
#
# Revision: 0
# Processed by: cddbd v1.5.1PL0 Copyright (c) Steve Scherf et al.
# Submitted via: dBpowerAMP V4.0
#
DISCID=a60fe90b
DTITLE=Lars Ekborg - Bunta ihop dom 2
DYEAR=1900
DGENRE=Humour
TTITLE0=Skattkammarön
TTITLE1=Profilen
TTITLE2=Ett ord till de unga
TTITLE3=Tummen
TTITLE4=Det stora eländet
TTITLE5=Lyckan
TTITLE6=Amatör kirurgen
TTITLE7=Poker med Joakim
TTITLE8=Visk skvaller
TTITLE9=Ridå överhalning
TTITLE10=Jag har din hand i min
EXTD=
EXTT0=
EXTT1=
EXTT2=
EXTT3=
EXTT4=
EXTT5=
EXTT6=
EXTT7=
EXTT8=
EXTT9=
EXTT10=
PLAYORDER=
